<svg width="57" height="60" viewBox="0 0 57 60" fill="none" xmlns="http://www.w3.org/2000/svg">
<path d="M51.3087 8.45579V44.317L46.1523 40.4625V4.59648L40.991 0.790172V36.6996L32.5528 30.436L30.8662 29.1833V11.8285H37.184V6.71645H19.3919V11.8285H25.7579V29.1833L24.0231 30.436L15.5849 36.6996V0.404722L10.4236 4.21103V40.5107L5.21905 44.3652V8.07035L0.202393 11.7803V54.3917L5.21905 50.6818L10.4236 46.8225V59.5037L15.5849 55.6926L25.7579 48.1715V41.8598L23.9749 43.1607L15.5849 49.3809V43.0161L25.7579 35.4951L28.312 33.616L30.8662 35.4951L40.991 43.0161V49.4772L30.8662 41.9562V48.2727L40.991 55.789L46.1523 59.6001V46.7743L51.3087 50.6336L56.3735 54.3917V12.1657L51.3087 8.45579Z" fill="url(#paint0_linear_159_1494)"/>
<path d="M46.3547 60L40.8706 55.9528L30.6638 48.3691V41.5466L40.7886 49.0677V43.1173L30.7457 35.6589L28.3121 33.8665L25.8784 35.6589L15.7873 43.1173V48.9713L23.8496 42.9921L25.9603 41.4551V48.2727L25.8784 48.3353L15.7054 55.8564L10.2213 59.9036V47.2272L0 54.7964V11.6791L5.42146 7.66562V43.9653L10.2213 40.4095V4.10985L15.7873 0V36.2949L23.8978 30.2722L25.5507 29.0773V12.0308H19.1847V6.51409H37.3816V12.0308H31.0637V29.0773L40.779 36.2949V0.385449L46.345 4.4953V40.3614L51.0966 43.9123V8.05107L56.5663 12.0597V54.7964L51.1786 50.7926L46.345 47.179V60H46.3547ZM31.0734 48.1667L41.1163 55.6251L45.9499 59.1954V46.3695L51.434 50.4698L56.1711 53.987V12.2669L51.5159 8.8557V44.7218L45.9499 40.5589V4.70248L41.1983 1.19489V37.1091L30.6638 29.2845V11.6261H36.9816V6.92363H19.5992V11.6261H25.9652V29.2893L24.1436 30.6047L15.3825 37.1091V0.809443L10.6309 4.31703V40.6167L5.01666 44.7748V8.47507L0.409621 11.8815V53.987L10.6309 46.4177V59.0942L15.4644 55.524L25.5555 48.0655V42.2549L24.0954 43.3197L15.3825 49.776V42.9053L15.4644 42.8427L25.6375 35.3216L28.3121 33.351L30.9866 35.3216L41.1934 42.9053V49.8723L31.0686 42.3512V48.1571L31.0734 48.1667Z" fill="#231F20"/>
<defs>
<linearGradient id="paint0_linear_159_1494" x1="0.202393" y1="30.0024" x2="56.3735" y2="30.0024" gradientUnits="userSpaceOnUse">
<stop stop-color="#FCB017"/>
<stop offset="1" stop-color="#9B6E29"/>
</linearGradient>
</defs>
</svg>
