<svg width="40" height="40" viewBox="0 0 40 40" fill="none" xmlns="http://www.w3.org/2000/svg">
<g clip-path="url(#clip0_159_1768)">
<path d="M19.375 4.36164V7.48063C19.375 7.82578 19.6548 8.10563 20 8.10563C20.3452 8.10563 20.625 7.82578 20.625 7.48063V4.36164C21.5276 4.09203 22.1875 3.25469 22.1875 2.26562C22.1875 1.05945 21.2062 0.078125 20 0.078125C18.7938 0.078125 17.8125 1.05938 17.8125 2.26562C17.8125 3.25461 18.4725 4.09195 19.375 4.36164ZM20 1.32812C20.517 1.32812 20.9375 1.74867 20.9375 2.26562C20.9375 2.78258 20.517 3.20312 20 3.20312C19.483 3.20312 19.0625 2.78258 19.0625 2.26562C19.0625 1.74867 19.483 1.32812 20 1.32812ZM28.8526 11.7724C29.0126 11.7724 29.1725 11.7114 29.2945 11.5894L31.5 9.38391C31.8095 9.55188 32.1638 9.64742 32.54 9.64742C33.7462 9.64742 34.7275 8.66602 34.7275 7.45984C34.7275 6.25375 33.7462 5.27242 32.54 5.27242C31.3338 5.27242 30.3525 6.25375 30.3525 7.45984C30.3525 7.83609 30.448 8.19047 30.616 8.49992L28.4105 10.7054C28.1665 10.9495 28.1665 11.3452 28.4105 11.5893C28.5327 11.7114 28.6927 11.7724 28.8526 11.7724ZM32.5401 6.52242C33.057 6.52242 33.4776 6.94297 33.4776 7.45984C33.4776 7.9768 33.057 8.39742 32.5401 8.39742C32.0231 8.39742 31.6026 7.9768 31.6026 7.45984C31.6026 6.94297 32.0231 6.52242 32.5401 6.52242ZM37.7344 17.8125C36.7454 17.8125 35.908 18.4725 35.6384 19.375H32.5195C32.1743 19.375 31.8945 19.6548 31.8945 20C31.8945 20.3452 32.1743 20.625 32.5195 20.625H35.6384C35.908 21.5275 36.7453 22.1875 37.7344 22.1875C38.9405 22.1875 39.9219 21.2062 39.9219 20C39.9219 18.7938 38.9405 17.8125 37.7344 17.8125ZM37.7344 20.9375C37.2175 20.9375 36.797 20.517 36.797 20C36.797 19.483 37.2175 19.0625 37.7344 19.0625C38.2513 19.0625 38.672 19.483 38.672 20C38.672 20.517 38.2513 20.9375 37.7344 20.9375ZM32.5401 30.3526C32.1638 30.3526 31.8095 30.4481 31.5 30.6161L29.2945 28.4106C29.0504 28.1666 28.6548 28.1666 28.4106 28.4106C28.1666 28.6548 28.1666 29.0504 28.4106 29.2945L30.6161 31.5C30.4481 31.8095 30.3526 32.1638 30.3526 32.5401C30.3526 33.7463 31.3339 34.7276 32.5401 34.7276C33.7463 34.7276 34.7276 33.7463 34.7276 32.5401C34.7276 31.3339 33.7463 30.3526 32.5401 30.3526ZM32.5401 33.4776C32.0231 33.4776 31.6026 33.057 31.6026 32.5401C31.6026 32.0231 32.0231 31.6026 32.5401 31.6026C33.057 31.6026 33.4776 32.0231 33.4776 32.5401C33.4776 33.057 33.057 33.4776 32.5401 33.4776ZM20.625 35.6373V32.5194C20.625 32.1742 20.3452 31.8944 20 31.8944C19.6548 31.8944 19.375 32.1742 19.375 32.5194V35.6384C18.4725 35.908 17.8125 36.7454 17.8125 37.7344C17.8125 38.9405 18.7938 39.9219 19.9999 39.9219H20C21.2062 39.9219 22.1875 38.9405 22.1875 37.7344C22.1875 37.1501 21.96 36.6007 21.5468 36.1876C21.2855 35.9263 20.9696 35.7395 20.625 35.6373ZM20 38.6719C19.4831 38.6719 19.0626 38.2513 19.0626 37.7344C19.0626 37.2174 19.4831 36.7969 20.0001 36.7969C20.2505 36.7969 20.4859 36.8944 20.6629 37.0714C20.84 37.2485 20.9375 37.4839 20.9375 37.7344C20.9375 38.2513 20.5169 38.6719 20 38.6719ZM10.7055 28.4106L8.5 30.6161C8.19047 30.4481 7.83617 30.3526 7.45992 30.3526C6.25375 30.3526 5.27242 31.3339 5.27242 32.5401C5.27242 33.7463 6.25375 34.7276 7.45992 34.7276C8.66609 34.7276 9.64742 33.7463 9.64742 32.5401C9.64742 32.1638 9.55188 31.8095 9.38391 31.5L11.5894 29.2945C11.8334 29.0504 11.8334 28.6548 11.5894 28.4106C11.3452 28.1666 10.9496 28.1666 10.7055 28.4106ZM7.45992 33.4776C6.94297 33.4776 6.52242 33.057 6.52242 32.5401C6.52242 32.0231 6.94297 31.6026 7.45992 31.6026C7.97687 31.6026 8.39742 32.0231 8.39742 32.5401C8.39742 33.057 7.97687 33.4776 7.45992 33.4776ZM7.48055 20.625C7.8257 20.625 8.10555 20.3452 8.10555 20C8.10555 19.6548 7.8257 19.375 7.48055 19.375H4.36164C4.09195 18.4725 3.25461 17.8125 2.26562 17.8125C1.05938 17.8125 0.078125 18.7938 0.078125 20C0.078125 21.2062 1.05938 22.1875 2.26562 22.1875C3.25469 22.1875 4.09203 21.5275 4.36172 20.6249H7.48055V20.625ZM2.26562 20.9375C1.74867 20.9375 1.32812 20.5169 1.32812 19.9999C1.32812 19.483 1.74859 19.0625 2.26562 19.0625C2.78266 19.0625 3.20312 19.483 3.20312 20C3.20312 20.517 2.78258 20.9375 2.26562 20.9375ZM7.45992 9.64742C7.83617 9.64742 8.19047 9.55188 8.5 9.38391L10.7055 11.5894C10.8275 11.7114 10.9874 11.7724 11.1474 11.7724C11.3073 11.7724 11.4673 11.7114 11.5894 11.5894C11.8334 11.3452 11.8334 10.9496 11.5894 10.7055L9.38391 8.5C9.55188 8.19047 9.64742 7.83617 9.64742 7.45992C9.64742 6.25375 8.66609 5.27242 7.45992 5.27242C6.25375 5.27242 5.27242 6.25375 5.27242 7.45992C5.27242 8.66609 6.25367 9.64742 7.45992 9.64742ZM7.45992 6.52242C7.97687 6.52242 8.39742 6.94297 8.39742 7.45992C8.39742 7.97687 7.97687 8.39742 7.45992 8.39742C6.94297 8.39742 6.52242 7.97687 6.52242 7.45992C6.52242 6.94297 6.94297 6.52242 7.45992 6.52242ZM26.0341 25.3602H23.7097C23.3645 25.3602 23.0847 25.0803 23.0847 24.7352C23.0847 24.39 23.3645 24.1102 23.7097 24.1102H26.0341C28.3005 24.1102 30.1443 22.2663 30.1443 20C30.1443 18.0995 28.8517 16.457 27.0011 16.0059C26.8313 15.9646 26.6867 15.8541 26.6022 15.7012C26.5177 15.5483 26.5009 15.367 26.5562 15.2013C26.632 14.9739 26.6703 14.7359 26.6703 14.4939C26.6703 13.2611 25.6673 12.2581 24.4345 12.2581C23.9823 12.2581 23.5468 12.3924 23.1751 12.6464C22.8964 12.8369 22.517 12.7717 22.3179 12.4992C21.436 11.2929 20.0189 10.5727 18.5273 10.5727C15.9399 10.5727 13.8349 12.6776 13.8349 15.265L13.8356 15.3189C13.8391 15.6281 13.6159 15.8934 13.3106 15.9428C11.341 16.262 9.8557 18.0063 9.8557 20.0001C9.8557 22.2665 11.6995 24.1102 13.9659 24.1102H16.2903C16.6355 24.1102 16.9153 24.3901 16.9153 24.7352C16.9153 25.0804 16.6355 25.3602 16.2903 25.3602H13.9659C11.0102 25.3602 8.6057 22.9557 8.6057 20.0001C8.6057 18.7331 9.06141 17.5004 9.88898 16.5289C10.6024 15.6913 11.5516 15.0954 12.6016 14.8173C12.8312 11.7491 15.4012 9.32266 18.5273 9.32266C20.2296 9.32266 21.8548 10.063 22.9765 11.3269C23.4308 11.1172 23.9259 11.0081 24.4345 11.0081C26.3566 11.0081 27.9203 12.5719 27.9203 14.4939C27.9203 14.6544 27.9094 14.8138 27.8877 14.9714C29.9801 15.7409 31.3944 17.7291 31.3944 20C31.3943 22.9556 28.9898 25.3602 26.0341 25.3602ZM13.548 18.8672C13.3039 19.1112 12.9083 19.1112 12.6641 18.8672C12.4201 18.623 12.4201 18.2274 12.6641 17.9833C16.7092 13.9385 23.2909 13.9384 27.336 17.9833C27.5801 18.2274 27.5801 18.623 27.336 18.8672C27.214 18.9892 27.054 19.0502 26.8941 19.0502C26.7341 19.0502 26.5741 18.9892 26.4521 18.8672C22.8944 15.3093 17.1056 15.3095 13.548 18.8672ZM14.5024 20.7055C14.2584 20.4614 14.2584 20.0658 14.5024 19.8216C15.9709 18.3532 17.9233 17.5445 20 17.5445C22.0766 17.5445 24.029 18.3533 25.4975 19.8216C25.7416 20.0658 25.7416 20.4614 25.4975 20.7055C25.3755 20.8276 25.2155 20.8886 25.0555 20.8886C24.8955 20.8886 24.7356 20.8276 24.6136 20.7055C22.0697 18.1616 17.9304 18.1615 15.3864 20.7055C15.1423 20.9497 14.7466 20.9495 14.5024 20.7055ZM23.2172 22.727C23.0572 22.727 22.8973 22.6659 22.7752 22.5439C21.2451 21.0135 18.7549 21.0137 17.2248 22.5439C16.9807 22.7878 16.5851 22.788 16.3409 22.5439C16.0968 22.2998 16.0968 21.9041 16.3409 21.66C18.3586 19.6423 21.6416 19.6424 23.6592 21.66C23.9033 21.9041 23.9033 22.2998 23.6592 22.5439C23.5371 22.6659 23.3772 22.727 23.2172 22.727ZM20 26.726C21.0978 26.726 21.9909 25.8329 21.9909 24.7352C21.9909 23.6374 21.0978 22.7441 20 22.7441C18.9022 22.7441 18.0091 23.6373 18.0091 24.7351C18.0091 25.8328 18.9023 26.726 20 26.726ZM20 23.9941C20.4085 23.9941 20.7409 24.3266 20.7409 24.7351C20.7409 25.1436 20.4085 25.4759 20 25.4759C19.5915 25.4759 19.2591 25.1436 19.2591 24.7351C19.2591 24.3266 19.5915 23.9941 20 23.9941Z" fill="#C36459"/>
</g>
<defs>
<clipPath id="clip0_159_1768">
<rect width="40" height="40" fill="white"/>
</clipPath>
</defs>
</svg>
