<svg width="40" height="40" viewBox="0 0 40 40" fill="none" xmlns="http://www.w3.org/2000/svg">
<g clip-path="url(#clip0_159_1765)">
<path d="M39.653 29.1031L35.553 27.0531L32.9437 20.2656C32.9129 20.1854 32.866 20.1123 32.8058 20.051C32.7456 19.9897 32.6733 19.9415 32.5937 19.9094L16.403 13.4375C16.2898 13.3924 16.1659 13.3815 16.0465 13.4059C15.9272 13.4303 15.8175 13.4891 15.7312 13.575L13.5718 15.7344C13.487 15.8209 13.4292 15.9301 13.4053 16.0488C13.3815 16.1675 13.3926 16.2906 13.4374 16.4031L19.9093 32.5938C19.9414 32.6735 19.9896 32.7457 20.0509 32.8059C20.1122 32.8661 20.1853 32.913 20.2655 32.9438L27.053 35.5531L29.103 39.6531C29.1462 39.7435 29.2105 39.8222 29.2904 39.8826C29.3703 39.943 29.4636 39.9832 29.5624 40C29.5957 40.0031 29.6291 40.0031 29.6624 40C29.8279 39.9993 29.9864 39.933 30.103 39.8156L39.8155 30.1031C39.887 30.0342 39.941 29.9491 39.9731 29.8551C40.0052 29.7611 40.0143 29.6608 39.9999 29.5625C39.9831 29.4637 39.9429 29.3705 39.8825 29.2905C39.8221 29.2106 39.7434 29.1463 39.653 29.1031ZM14.7468 16.3219L15.0937 15.9781L23.153 24.0375C22.6219 24.7901 22.3925 25.7147 22.5102 26.6283C22.6279 27.5419 23.0842 28.3781 23.7887 28.9715C24.4933 29.565 25.3949 29.8724 26.3152 29.8331C27.2356 29.7937 28.1076 29.4105 28.759 28.7591C29.4104 28.1077 29.7936 27.2357 29.8329 26.3153C29.8723 25.395 29.5648 24.4934 28.9714 23.7888C28.378 23.0843 27.5418 22.628 26.6282 22.5103C25.7146 22.3926 24.79 22.622 24.0374 23.1531L15.978 15.0938L16.3218 14.7469L31.8749 20.9688L34.328 27.35L27.3499 34.3281L20.9687 31.875L14.7468 16.3219ZM26.1562 23.7281C26.7179 23.729 27.2619 23.9245 27.6956 24.2815C28.1293 24.6385 28.4258 25.1348 28.5347 25.6858C28.6435 26.2369 28.5579 26.8087 28.2924 27.3037C28.027 27.7987 27.5981 28.1864 27.0789 28.4007C26.5597 28.615 25.9822 28.6427 25.4449 28.479C24.9075 28.3153 24.4436 27.9703 24.1321 27.5029C23.8205 27.0355 23.6807 26.4745 23.7364 25.9156C23.792 25.3566 24.0398 24.8343 24.4374 24.4375C24.8937 23.9827 25.5119 23.7275 26.1562 23.7281ZM29.8343 38.3188L28.2718 35.1938L35.1874 28.2781L38.3124 29.8406L29.8343 38.3188Z" fill="#5AA4AE"/>
<path d="M11.9531 33.4376C11.8336 33.3246 11.6754 33.2617 11.5109 33.2617C11.3465 33.2617 11.1882 33.3246 11.0687 33.4376L10.275 34.2313C8.15678 31.3565 6.98825 27.8924 6.93223 24.3219C6.87621 20.7514 7.9355 17.2524 9.96247 14.3126C10.5697 14.6467 11.269 14.7751 11.9553 14.6784C12.6417 14.5817 13.2783 14.2652 13.7696 13.7763C14.261 13.2874 14.5807 12.6525 14.6808 11.9666C14.7809 11.2807 14.6561 10.5809 14.325 9.97193C17.2648 7.94497 20.7639 6.88567 24.3343 6.94169C27.9048 6.99771 31.3689 8.16624 34.2437 10.2844L33.4375 11.0688C33.3212 11.186 33.2561 11.3444 33.2562 11.5094C33.2557 11.5917 33.2715 11.6732 33.3026 11.7494C33.3337 11.8255 33.3795 11.8948 33.4375 11.9532L36.1937 14.6876C36.3108 14.804 36.4692 14.8693 36.6343 14.8693C36.7995 14.8693 36.9579 14.804 37.075 14.6876L39.8156 11.9469C39.8737 11.8889 39.9198 11.82 39.9513 11.7441C39.9827 11.6682 39.9989 11.5869 39.9989 11.5047C39.9989 11.4226 39.9827 11.3413 39.9513 11.2654C39.9198 11.1895 39.8737 11.1206 39.8156 11.0626L37.075 8.32193C36.9579 8.20552 36.7995 8.14018 36.6343 8.14018C36.4692 8.14018 36.3108 8.20552 36.1937 8.32193L35.1343 9.37505C32.5234 7.41035 29.4366 6.17598 26.1909 5.79869C22.9452 5.4214 19.6576 5.91478 16.6656 7.22818L20.2687 3.63443C20.6773 3.82964 21.1417 3.87383 21.5798 3.75915C22.0178 3.64448 22.401 3.37835 22.6615 3.00799C22.922 2.63763 23.0429 2.18697 23.0027 1.73597C22.9625 1.28497 22.7639 0.862786 22.442 0.54431C22.1201 0.225834 21.6959 0.0316584 21.2445 -0.00376841C20.7931 -0.0391952 20.3437 0.0864168 19.9761 0.350783C19.6085 0.61515 19.3465 1.00118 19.2364 1.44039C19.1264 1.8796 19.1755 2.34359 19.375 2.75005L13.2937 8.84068C12.6763 8.42649 11.9342 8.23954 11.1942 8.31174C10.4542 8.38395 9.76223 8.71084 9.23649 9.23658C8.71076 9.76231 8.38387 10.4543 8.31166 11.1943C8.23945 11.9343 8.42641 12.6764 8.84059 13.2938L2.74997 19.3751C2.34192 19.1762 1.87658 19.1285 1.43666 19.2403C0.996735 19.3522 0.610713 19.6164 0.347188 19.986C0.083662 20.3556 -0.0402998 20.8066 -0.00267003 21.259C0.0349597 21.7113 0.231744 22.1357 0.552714 22.4567C0.873685 22.7777 1.29805 22.9744 1.75041 23.0121C2.20277 23.0497 2.65382 22.9257 3.02341 22.6622C3.39301 22.3987 3.6572 22.0127 3.76906 21.5727C3.88091 21.1328 3.83318 20.6675 3.63434 20.2594L7.23747 16.6657C5.92276 19.6569 5.42782 22.944 5.80346 26.1897C6.1791 29.4354 7.41179 32.5226 9.37497 35.1344L8.31872 36.1938C8.20231 36.3109 8.13697 36.4693 8.13697 36.6344C8.13697 36.7995 8.20231 36.958 8.31872 37.0751L11.0593 39.8157C11.176 39.9331 11.3345 39.9994 11.5 40.0001C11.5824 40.0001 11.6641 39.9839 11.7403 39.9522C11.8164 39.9206 11.8856 39.8742 11.9437 39.8157L14.6875 37.0751C14.8039 36.958 14.8692 36.7995 14.8692 36.6344C14.8692 36.4693 14.8039 36.3109 14.6875 36.1938L11.9531 33.4376ZM36.6406 9.64068L38.4968 11.4969L36.6406 13.3532L34.7843 11.4969L36.6406 9.64068ZM20.625 1.44693C20.7178 1.3533 20.8364 1.28937 20.9657 1.26324C21.095 1.23712 21.2291 1.24999 21.351 1.30021C21.473 1.35043 21.5772 1.43574 21.6506 1.54532C21.724 1.65489 21.7632 1.7838 21.7632 1.91568C21.7632 2.04756 21.724 2.17646 21.6506 2.28604C21.5772 2.39562 21.473 2.48093 21.351 2.53115C21.2291 2.58137 21.095 2.59424 20.9657 2.56812C20.8364 2.54199 20.7178 2.47806 20.625 2.38443C20.5634 2.3229 20.5145 2.24983 20.4811 2.1694C20.4478 2.08897 20.4306 2.00275 20.4306 1.91568C20.4306 1.82861 20.4478 1.74239 20.4811 1.66196C20.5145 1.58153 20.5634 1.50846 20.625 1.44693ZM10.125 10.1251C10.3065 9.9427 10.5222 9.79799 10.7598 9.69925C10.9973 9.60051 11.2521 9.54968 11.5093 9.54968C11.7666 9.54968 12.0214 9.60051 12.2589 9.69925C12.4965 9.79799 12.7122 9.9427 12.8937 10.1251C13.1681 10.399 13.355 10.7481 13.4308 11.1282C13.5067 11.5084 13.4681 11.9025 13.3199 12.2607C13.1717 12.619 12.9205 12.9252 12.5982 13.1406C12.276 13.356 11.897 13.471 11.5093 13.471C11.1217 13.471 10.7427 13.356 10.4204 13.1406C10.0982 12.9252 9.84702 12.619 9.69882 12.2607C9.55061 11.9025 9.51199 11.5084 9.58785 11.1282C9.66371 10.7481 9.85063 10.399 10.125 10.1251ZM2.38747 21.5626C2.25987 21.669 2.09709 21.7238 1.93112 21.7163C1.76515 21.7088 1.60798 21.6395 1.4905 21.522C1.37302 21.4045 1.30372 21.2474 1.29622 21.0814C1.28872 20.9154 1.34356 20.7527 1.44997 20.6251C1.57503 20.5021 1.74337 20.4333 1.91872 20.4333C2.09407 20.4333 2.2624 20.5021 2.38747 20.6251C2.44908 20.6866 2.49795 20.7597 2.53129 20.8401C2.56464 20.9205 2.5818 21.0067 2.5818 21.0938C2.5818 21.1809 2.56464 21.2671 2.53129 21.3475C2.49795 21.428 2.44908 21.501 2.38747 21.5626ZM11.5093 38.4782L9.65309 36.6219L11.5093 34.7657L13.3656 36.6219L11.5093 38.4782Z" fill="#5AA4AE"/>
</g>
<defs>
<clipPath id="clip0_159_1765">
<rect width="40" height="40" fill="white"/>
</clipPath>
</defs>
</svg>
