<svg width="40" height="40" viewBox="0 0 40 40" fill="none" xmlns="http://www.w3.org/2000/svg">
<g clip-path="url(#clip0_159_1763)">
<path d="M10.078 25.777H13.3101V27.6875H10.3857C10.2011 27.6875 9.86528 27.7611 9.68857 28.254L9.03286 30.0835C9.01497 30.0829 8.99755 30.0807 8.9795 30.0807C8.61288 30.0795 8.25772 30.2085 7.97743 30.4448C7.69714 30.6811 7.50995 31.0094 7.44927 31.371C7.3886 31.7325 7.45838 32.1039 7.64618 32.4188C7.83397 32.7337 8.12755 32.9716 8.47451 33.09C8.82148 33.2085 9.19924 33.1998 9.54039 33.0655C9.88153 32.9312 10.1639 32.68 10.337 32.3568C10.5101 32.0336 10.5627 31.6595 10.4854 31.3011C10.4082 30.9427 10.2061 30.6234 9.91521 30.4002L10.5515 28.625H13.3101V31.9081C13.3101 32.0324 13.3594 32.1516 13.4473 32.2396C13.5353 32.3275 13.6545 32.3768 13.7788 32.3768H17.0619V35.1355L15.2868 35.7718C15.0644 35.4831 14.7467 35.2827 14.3903 35.2064C14.034 35.1301 13.6621 35.1828 13.341 35.3552C13.0199 35.5276 12.7704 35.8084 12.6371 36.1476C12.5037 36.4868 12.4952 36.8623 12.613 37.2072C12.7307 37.5521 12.9671 37.8439 13.2801 38.0307C13.593 38.2175 13.9621 38.2871 14.3216 38.2271C14.6811 38.1671 15.0076 37.9813 15.2428 37.703C15.4781 37.4247 15.6069 37.0718 15.6062 36.7074C15.6062 36.6894 15.6042 36.672 15.6036 36.6541L17.4331 35.9984C17.9258 35.8217 17.9994 35.4858 17.9994 35.3013V32.377H19.9101V36.9922C19.5601 37.104 19.2615 37.3373 19.0683 37.6499C18.8751 37.9625 18.8 38.3339 18.8566 38.697C18.9132 39.0601 19.0977 39.3911 19.3769 39.6301C19.656 39.8691 20.0114 40.0004 20.3789 40.0004C20.7464 40.0004 21.1018 39.8691 21.3809 39.6301C21.66 39.3911 21.8446 39.0601 21.9011 38.697C21.9577 38.3339 21.8826 37.9625 21.6894 37.6499C21.4963 37.3373 21.1977 37.104 20.8476 36.9922V32.377H22.7584V35.3015C22.7584 35.486 22.8319 35.8218 23.3248 35.9986L25.1542 36.6543C25.1536 36.6722 25.1515 36.6896 25.1515 36.7075C25.1502 37.0742 25.2792 37.4294 25.5155 37.7097C25.7518 37.9901 26.0801 38.1773 26.4417 38.238C26.8033 38.2987 27.1747 38.229 27.4896 38.0412C27.8045 37.8534 28.0424 37.5598 28.1609 37.2128C28.2794 36.8658 28.2707 36.488 28.1364 36.1469C28.0021 35.8057 27.751 35.5233 27.4277 35.3502C27.1045 35.1771 26.7303 35.1245 26.3719 35.2017C26.0135 35.279 25.6942 35.4811 25.471 35.772L23.6959 35.1357V32.377H26.979C27.1033 32.377 27.2225 32.3276 27.3104 32.2397C27.3983 32.1518 27.4477 32.0326 27.4477 31.9082V28.625H30.2063L30.8426 30.4003C30.5539 30.6227 30.3536 30.9403 30.2774 31.2967C30.2011 31.653 30.2539 32.0248 30.4262 32.3459C30.5986 32.667 30.8794 32.9164 31.2186 33.0497C31.5577 33.1829 31.9332 33.1915 32.278 33.0737C32.6229 32.9559 32.9147 32.7195 33.1014 32.4066C33.2882 32.0937 33.3578 31.7246 33.2978 31.3652C33.2378 31.0058 33.052 30.6794 32.7737 30.4441C32.4955 30.2089 32.1427 30.0801 31.7783 30.0807C31.7602 30.0807 31.7428 30.0829 31.725 30.0835L31.0692 28.254C30.8925 27.7611 30.5566 27.6875 30.3722 27.6875H27.4477V25.777H30.68C32.8888 25.777 34.8227 25.0225 36.2727 23.595C37.5687 22.3192 38.4028 20.5661 38.6213 18.6589C38.8398 16.7516 38.4237 14.858 37.4494 13.3248C36.4323 11.7233 34.8704 10.5961 32.9141 10.0454C33.2032 7.87395 32.2739 5.80052 30.4233 4.55403C28.604 3.32856 26.3711 3.24059 24.485 4.28966C23.5033 2.61216 22.088 1.3588 20.3668 0.649032C18.622 -0.0495134 16.7023 -0.184867 14.8767 0.261925C13.051 0.708717 11.4108 1.71528 10.1858 3.14067C8.95857 4.60466 8.27552 6.44044 8.19872 8.46989C6.0902 8.93281 4.22703 10.1584 2.96701 11.9112C1.70698 13.6641 1.13895 15.8206 1.37199 17.9668C1.60502 20.1129 2.6227 22.0973 4.22959 23.5388C5.83648 24.9804 7.91928 25.7774 10.078 25.777ZM8.97982 32.2246C8.86053 32.2246 8.74392 32.1892 8.64474 32.1229C8.54555 32.0567 8.46825 31.9625 8.4226 31.8523C8.37695 31.7421 8.36501 31.6208 8.38828 31.5038C8.41155 31.3868 8.46899 31.2793 8.55334 31.195C8.63769 31.1106 8.74516 31.0532 8.86215 31.0299C8.97915 31.0066 9.10042 31.0186 9.21062 31.0642C9.32083 31.1099 9.41502 31.1872 9.4813 31.2864C9.54757 31.3856 9.58294 31.5022 9.58294 31.6215C9.58278 31.7814 9.51914 31.9348 9.406 32.0479C9.29286 32.1609 9.13947 32.2245 8.9795 32.2246H8.97982ZM14.0658 37.3105C13.9465 37.3105 13.8299 37.2751 13.7307 37.2089C13.6315 37.1426 13.5542 37.0484 13.5085 36.9382C13.4629 36.828 13.4509 36.7067 13.4742 36.5898C13.4975 36.4728 13.5549 36.3653 13.6393 36.2809C13.7236 36.1966 13.8311 36.1391 13.948 36.1159C14.065 36.0926 14.1863 36.1045 14.2965 36.1502C14.4067 36.1958 14.5009 36.2731 14.5672 36.3723C14.6335 36.4714 14.6689 36.588 14.6689 36.7073C14.6688 36.8673 14.6052 37.0207 14.4921 37.1338C14.379 37.247 14.2256 37.3106 14.0656 37.3107L14.0658 37.3105ZM20.3789 39.0625C20.2596 39.0625 20.143 39.0272 20.0438 38.9609C19.9446 38.8946 19.8673 38.8004 19.8217 38.6902C19.776 38.58 19.7641 38.4588 19.7873 38.3418C19.8106 38.2248 19.8681 38.1173 19.9524 38.0329C20.0368 37.9486 20.1442 37.8912 20.2612 37.8679C20.3782 37.8446 20.4995 37.8566 20.6097 37.9022C20.7199 37.9479 20.8141 38.0252 20.8804 38.1243C20.9466 38.2235 20.982 38.3401 20.982 38.4594C20.9818 38.6193 20.9182 38.7726 20.8051 38.8857C20.6921 38.9988 20.5388 39.0624 20.3789 39.0625ZM26.6922 36.1045C26.8114 36.1045 26.9281 36.1399 27.0272 36.2062C27.1264 36.2724 27.2037 36.3666 27.2494 36.4768C27.295 36.5871 27.307 36.7083 27.2837 36.8253C27.2604 36.9423 27.203 37.0498 27.1186 37.1341C27.0342 37.2185 26.9268 37.2759 26.8098 37.2992C26.6928 37.3224 26.5715 37.3105 26.4613 37.2648C26.3511 37.2192 26.2569 37.1418 26.1906 37.0426C26.1244 36.9435 26.089 36.8268 26.089 36.7075C26.0892 36.5477 26.1528 36.3944 26.2659 36.2813C26.379 36.1683 26.5323 36.1047 26.6922 36.1045ZM32.3813 31.6215C32.3813 31.7407 32.346 31.8574 32.2797 31.9566C32.2134 32.0558 32.1192 32.1331 32.009 32.1787C31.8988 32.2244 31.7775 32.2363 31.6605 32.2131C31.5435 32.1898 31.4361 32.1324 31.3517 32.048C31.2673 31.9637 31.2099 31.8562 31.1866 31.7392C31.1634 31.6222 31.1753 31.5009 31.221 31.3907C31.2666 31.2805 31.344 31.1863 31.4431 31.12C31.5423 31.0538 31.659 31.0184 31.7783 31.0184C31.9381 31.0186 32.0914 31.0822 32.2045 31.1952C32.3175 31.3083 32.3811 31.4616 32.3813 31.6215ZM26.5102 31.4395H14.2476V19.1769H26.5102V31.4395ZM20.3789 12.7602C20.2596 12.7602 20.143 12.7248 20.0438 12.6586C19.9446 12.5923 19.8673 12.4981 19.8217 12.3879C19.776 12.2777 19.7641 12.1564 19.7873 12.0394C19.8106 11.9224 19.8681 11.815 19.9524 11.7306C20.0368 11.6463 20.1442 11.5888 20.2612 11.5655C20.3782 11.5423 20.4995 11.5542 20.6097 11.5999C20.7199 11.6455 20.8141 11.7228 20.8804 11.822C20.9466 11.9212 20.982 12.0378 20.982 12.1571C20.9818 12.317 20.9182 12.4703 20.8051 12.5833C20.6921 12.6964 20.5388 12.76 20.3789 12.7602ZM8.7406 9.31841C8.84934 9.29948 8.94792 9.24278 9.01896 9.1583C9.09 9.07383 9.12895 8.96699 9.12896 8.85661C9.12896 4.25903 12.3459 1.84364 15.1008 1.17216C17.8558 0.500673 21.8124 1.14239 23.8953 5.16098C23.9257 5.2196 23.9681 5.27113 24.0198 5.31222C24.0714 5.3533 24.1312 5.38301 24.1952 5.39939C24.2591 5.41577 24.3258 5.41846 24.3909 5.40728C24.4559 5.39609 24.5179 5.37129 24.5727 5.3345C26.2199 4.22895 28.2612 4.22786 29.9 5.33161C31.5535 6.44536 32.3279 8.3477 31.9211 10.2963C31.896 10.4162 31.919 10.5412 31.9849 10.6444C32.0509 10.7476 32.1546 10.8209 32.274 10.8486C36.5122 11.833 38.048 15.4268 37.69 18.5522C37.3314 21.6817 35.0248 24.8395 30.68 24.8395H27.4477V22.9287H30.3722C30.5566 22.9287 30.8925 22.8551 31.0692 22.3623L31.725 20.5329C31.7428 20.5335 31.7602 20.5356 31.7783 20.5356C32.1449 20.537 32.5002 20.408 32.7806 20.1716C33.0609 19.9353 33.2482 19.607 33.3089 19.2454C33.3697 18.8838 33.2999 18.5123 33.1121 18.1974C32.9243 17.8824 32.6307 17.6444 32.2837 17.5259C31.9367 17.4074 31.5589 17.4161 31.2177 17.5504C30.8764 17.6847 30.5941 17.9359 30.4209 18.2591C30.2477 18.5823 30.1951 18.9566 30.2723 19.315C30.3496 19.6735 30.5517 19.9928 30.8426 20.2161L30.2063 21.9912H27.4477V18.7082C27.4477 18.5839 27.3983 18.4646 27.3104 18.3767C27.2225 18.2888 27.1033 18.2394 26.979 18.2394H23.6959V15.4808L25.4711 14.8445C25.6935 15.1332 26.0111 15.3335 26.3675 15.4098C26.7238 15.4861 27.0957 15.4333 27.4168 15.2609C27.7379 15.0886 27.9873 14.8078 28.1206 14.4686C28.2539 14.1294 28.2624 13.7539 28.1446 13.4091C28.0269 13.0642 27.7904 12.7724 27.4775 12.5856C27.1646 12.3988 26.7955 12.3292 26.4361 12.3893C26.0766 12.4493 25.7502 12.635 25.5149 12.9133C25.2796 13.1916 25.1509 13.5445 25.1515 13.9089C25.1515 13.9268 25.1536 13.9443 25.1542 13.9622L23.3248 14.6179C22.8319 14.7946 22.7584 15.1304 22.7584 15.315V18.2394H20.8476V13.6242C21.1977 13.5124 21.4963 13.2791 21.6894 12.9665C21.8826 12.6539 21.9577 12.2825 21.9011 11.9194C21.8446 11.5563 21.66 11.2254 21.3809 10.9864C21.1018 10.7473 20.7464 10.616 20.3789 10.616C20.0114 10.616 19.656 10.7473 19.3769 10.9864C19.0977 11.2254 18.9132 11.5563 18.8566 11.9194C18.8 12.2825 18.8751 12.6539 19.0683 12.9665C19.2615 13.2791 19.5601 13.5124 19.9101 13.6242V18.2394H17.9994V15.315C17.9994 15.1304 17.9258 14.7946 17.433 14.6179L15.6036 13.9622C15.6042 13.9443 15.6062 13.9268 15.6062 13.9089C15.6075 13.5422 15.4785 13.1871 15.2422 12.9068C15.0059 12.6265 14.6776 12.4393 14.3161 12.3786C13.9545 12.3179 13.5831 12.3877 13.2682 12.5754C12.9534 12.7632 12.7154 13.0568 12.597 13.4038C12.4785 13.7507 12.4872 14.1285 12.6215 14.4697C12.7558 14.8108 13.0069 15.0931 13.3301 15.2662C13.6533 15.4393 14.0275 15.492 14.3859 15.4147C14.7443 15.3375 15.0636 15.1354 15.2868 14.8445L17.0619 15.4808V18.2394H13.7788C13.6545 18.2394 13.5353 18.2888 13.4473 18.3767C13.3594 18.4646 13.3101 18.5839 13.3101 18.7082V21.9912H10.5515L9.91521 20.2161C10.2039 19.9938 10.4043 19.6761 10.4806 19.3197C10.557 18.9634 10.5042 18.5915 10.3319 18.2704C10.1595 17.9493 9.87871 17.6998 9.53954 17.5665C9.20036 17.4331 8.82486 17.4245 8.47996 17.5423C8.13506 17.66 7.84319 17.8965 7.65638 18.2094C7.46956 18.5223 7.39994 18.8914 7.45993 19.2509C7.51992 19.6103 7.70563 19.9368 7.98393 20.1721C8.26224 20.4074 8.61506 20.5362 8.9795 20.5356C8.99755 20.5356 9.01497 20.5335 9.03286 20.5329L9.68864 22.3624C9.86528 22.8551 10.2011 22.9287 10.3857 22.9287H13.3101V24.8395H10.078C8.12065 24.8396 6.23447 24.1054 4.79222 22.7821C3.34996 21.4587 2.45655 19.6425 2.28855 17.6924C2.12055 15.7423 2.69018 13.8 3.88486 12.2496C5.07955 10.6991 6.81237 9.65312 8.74091 9.31841H8.7406ZM31.1751 18.995C31.1751 18.8757 31.2105 18.7591 31.2768 18.6599C31.343 18.5607 31.4372 18.4834 31.5474 18.4378C31.6577 18.3921 31.7789 18.3802 31.8959 18.4034C32.0129 18.4267 32.1204 18.4841 32.2047 18.5685C32.2891 18.6528 32.3465 18.7603 32.3698 18.8773C32.3931 18.9943 32.3811 19.1156 32.3355 19.2258C32.2898 19.336 32.2125 19.4302 32.1133 19.4964C32.0141 19.5627 31.8975 19.5981 31.7783 19.5981C31.6183 19.5979 31.465 19.5343 31.352 19.4213C31.2389 19.3082 31.1753 19.1549 31.1751 18.995ZM26.0892 13.909C26.0892 13.7897 26.1245 13.6731 26.1908 13.5739C26.2571 13.4747 26.3512 13.3974 26.4615 13.3518C26.5717 13.3061 26.6929 13.2941 26.8099 13.3174C26.9269 13.3407 27.0344 13.3981 27.1188 13.4825C27.2031 13.5668 27.2606 13.6743 27.2838 13.7913C27.3071 13.9083 27.2952 14.0295 27.2495 14.1397C27.2039 14.25 27.1266 14.3442 27.0274 14.4104C26.9282 14.4767 26.8116 14.5121 26.6923 14.5121C26.5324 14.5119 26.379 14.4483 26.2659 14.3352C26.1528 14.2222 26.0892 14.0688 26.089 13.9089L26.0892 13.909ZM14.6689 13.909C14.6689 14.0283 14.6335 14.1449 14.5672 14.2441C14.501 14.3433 14.4068 14.4206 14.2966 14.4662C14.1864 14.5119 14.0651 14.5238 13.9481 14.5006C13.8311 14.4773 13.7236 14.4199 13.6393 14.3355C13.5549 14.2512 13.4975 14.1437 13.4742 14.0267C13.4509 13.9097 13.4629 13.7884 13.5085 13.6782C13.5542 13.568 13.6315 13.4738 13.7307 13.4076C13.8299 13.3413 13.9465 13.3059 14.0658 13.3059C14.2256 13.3061 14.3789 13.3697 14.4919 13.4827C14.6049 13.5958 14.6685 13.749 14.6687 13.9089L14.6689 13.909ZM8.37661 18.995C8.37661 18.8757 8.41199 18.7591 8.47826 18.6599C8.54454 18.5607 8.63874 18.4834 8.74895 18.4377C8.85916 18.3921 8.98043 18.3802 9.09743 18.4034C9.21443 18.4267 9.32189 18.4842 9.40624 18.5685C9.49058 18.6529 9.54802 18.7604 9.57128 18.8774C9.59455 18.9944 9.58259 19.1156 9.53693 19.2258C9.49127 19.336 9.41395 19.4302 9.31476 19.4965C9.21557 19.5627 9.09895 19.5981 8.97966 19.5981C8.81973 19.598 8.66639 19.5344 8.5533 19.4213C8.4402 19.3082 8.3766 19.1549 8.37646 18.995H8.37661ZM16.6136 29.5422H24.144C24.2684 29.5422 24.3876 29.4928 24.4755 29.4049C24.5634 29.317 24.6128 29.1978 24.6128 29.0735V21.543C24.6128 21.4187 24.5634 21.2995 24.4755 21.2116C24.3876 21.1237 24.2684 21.0743 24.144 21.0743H16.6136C16.4893 21.0743 16.3701 21.1237 16.2822 21.2116C16.1943 21.2995 16.1449 21.4187 16.1449 21.543V29.0735C16.1449 29.1978 16.1943 29.317 16.2822 29.4049C16.3701 29.4928 16.4893 29.5422 16.6136 29.5422ZM17.0824 22.0118H23.6753V28.6047H17.0824V22.0118Z" fill="#47BE8D"/>
</g>
<defs>
<clipPath id="clip0_159_1763">
<rect width="40" height="40" fill="white"/>
</clipPath>
</defs>
</svg>
