<svg width="40" height="40" viewBox="0 0 40 40" fill="none" xmlns="http://www.w3.org/2000/svg">
<path d="M33.75 7.5H31.875V3.75C31.874 2.9215 31.5445 2.12721 30.9586 1.54137C30.3728 0.955529 29.5785 0.625976 28.75 0.625H11.25C10.4215 0.625976 9.62721 0.955529 9.04137 1.54137C8.45553 2.12721 8.12598 2.9215 8.125 3.75V7.5H6.25C6.08424 7.5 5.92527 7.56585 5.80806 7.68306C5.69085 7.80027 5.625 7.95924 5.625 8.125V27.5C5.625 27.6658 5.69085 27.8247 5.80806 27.9419C5.92527 28.0592 6.08424 28.125 6.25 28.125H8.125V36.25C8.12598 37.0785 8.45553 37.8728 9.04137 38.4586C9.62721 39.0445 10.4215 39.374 11.25 39.375H28.75C29.5785 39.374 30.3728 39.0445 30.9586 38.4586C31.5445 37.8728 31.874 37.0785 31.875 36.25V28.125H33.75C33.9158 28.125 34.0747 28.0592 34.1919 27.9419C34.3092 27.8247 34.375 27.6658 34.375 27.5V8.125C34.375 7.95924 34.3092 7.80027 34.1919 7.68306C34.0747 7.56585 33.9158 7.5 33.75 7.5ZM9.375 3.75C9.37555 3.25289 9.57327 2.77629 9.92478 2.42478C10.2763 2.07327 10.7529 1.87555 11.25 1.875H28.75C29.2471 1.87555 29.7237 2.07327 30.0752 2.42478C30.4267 2.77629 30.6245 3.25289 30.625 3.75V7.5H9.375V3.75ZM6.875 8.75H33.125V12.5H6.875V8.75ZM30.625 36.25C30.6245 36.7471 30.4267 37.2237 30.0752 37.5752C29.7237 37.9267 29.2471 38.1245 28.75 38.125H11.25C10.7529 38.1245 10.2763 37.9267 9.92478 37.5752C9.57327 37.2237 9.37555 36.7471 9.375 36.25V33.125H30.625V36.25ZM30.625 31.875H9.375V28.125H30.625V31.875ZM33.125 26.875H6.875V13.75H33.125V26.875Z" fill="#77CABE"/>
<path d="M31.25 11.25C31.5952 11.25 31.875 10.9702 31.875 10.625C31.875 10.2798 31.5952 10 31.25 10C30.9048 10 30.625 10.2798 30.625 10.625C30.625 10.9702 30.9048 11.25 31.25 11.25Z" fill="#77CABE"/>
<path d="M28.75 11.25C29.0952 11.25 29.375 10.9702 29.375 10.625C29.375 10.2798 29.0952 10 28.75 10C28.4048 10 28.125 10.2798 28.125 10.625C28.125 10.9702 28.4048 11.25 28.75 11.25Z" fill="#77CABE"/>
<path d="M26.25 11.25C26.5952 11.25 26.875 10.9702 26.875 10.625C26.875 10.2798 26.5952 10 26.25 10C25.9048 10 25.625 10.2798 25.625 10.625C25.625 10.9702 25.9048 11.25 26.25 11.25Z" fill="#77CABE"/>
<path d="M20 37.5C20.3708 37.5 20.7334 37.39 21.0417 37.184C21.35 36.978 21.5904 36.6851 21.7323 36.3425C21.8742 35.9999 21.9113 35.6229 21.839 35.2592C21.7666 34.8955 21.588 34.5614 21.3258 34.2992C21.0636 34.037 20.7295 33.8584 20.3658 33.786C20.0021 33.7137 19.6251 33.7508 19.2825 33.8927C18.9399 34.0346 18.647 34.275 18.441 34.5833C18.235 34.8916 18.125 35.2542 18.125 35.625C18.1255 36.1221 18.3233 36.5987 18.6748 36.9502C19.0263 37.3017 19.5029 37.4995 20 37.5ZM20 35C20.1236 35 20.2444 35.0367 20.3472 35.1053C20.45 35.174 20.5301 35.2716 20.5774 35.3858C20.6247 35.5 20.6371 35.6257 20.613 35.7469C20.5889 35.8682 20.5294 35.9795 20.4419 36.0669C20.3545 36.1544 20.2432 36.2139 20.1219 36.238C20.0007 36.2621 19.875 36.2497 19.7608 36.2024C19.6466 36.1551 19.549 36.075 19.4803 35.9722C19.4117 35.8695 19.375 35.7486 19.375 35.625C19.3751 35.4593 19.441 35.3004 19.5582 35.1832C19.6754 35.066 19.8343 35.0001 20 35Z" fill="#77CABE"/>
<path d="M25 36.25H27.5C27.6658 36.25 27.8247 36.1842 27.9419 36.0669C28.0592 35.9497 28.125 35.7908 28.125 35.625C28.125 35.4592 28.0592 35.3003 27.9419 35.1831C27.8247 35.0658 27.6658 35 27.5 35H25C24.8342 35 24.6753 35.0658 24.5581 35.1831C24.4408 35.3003 24.375 35.4592 24.375 35.625C24.375 35.7908 24.4408 35.9497 24.5581 36.0669C24.6753 36.1842 24.8342 36.25 25 36.25Z" fill="#77CABE"/>
<path d="M12.5 36.25H15C15.1658 36.25 15.3247 36.1842 15.4419 36.0669C15.5592 35.9497 15.625 35.7908 15.625 35.625C15.625 35.4592 15.5592 35.3003 15.4419 35.1831C15.3247 35.0658 15.1658 35 15 35H12.5C12.3342 35 12.1753 35.0658 12.0581 35.1831C11.9408 35.3003 11.875 35.4592 11.875 35.625C11.875 35.7908 11.9408 35.9497 12.0581 36.0669C12.1753 36.1842 12.3342 36.25 12.5 36.25Z" fill="#77CABE"/>
<path d="M22.5 3.125H17.5C17.3342 3.125 17.1753 3.19085 17.0581 3.30806C16.9408 3.42527 16.875 3.58424 16.875 3.75C16.875 3.91576 16.9408 4.07473 17.0581 4.19194C17.1753 4.30915 17.3342 4.375 17.5 4.375H22.5C22.6658 4.375 22.8247 4.30915 22.9419 4.19194C23.0592 4.07473 23.125 3.91576 23.125 3.75C23.125 3.58424 23.0592 3.42527 22.9419 3.30806C22.8247 3.19085 22.6658 3.125 22.5 3.125Z" fill="#77CABE"/>
<path d="M25 4.375C25.3452 4.375 25.625 4.09518 25.625 3.75C25.625 3.40482 25.3452 3.125 25 3.125C24.6548 3.125 24.375 3.40482 24.375 3.75C24.375 4.09518 24.6548 4.375 25 4.375Z" fill="#77CABE"/>
<path d="M14.8705 23.5669C14.9884 23.6807 15.1462 23.7437 15.3101 23.7423C15.474 23.7409 15.6307 23.6752 15.7466 23.5593C15.8625 23.4434 15.9282 23.2866 15.9297 23.1228C15.9311 22.9589 15.8681 22.801 15.7542 22.6831L13.0712 20L15.7542 17.3169C15.8681 17.199 15.9311 17.0411 15.9297 16.8773C15.9282 16.7134 15.8625 16.5566 15.7466 16.4407C15.6307 16.3249 15.474 16.2591 15.3101 16.2577C15.1462 16.2563 14.9884 16.3193 14.8705 16.4331L11.7455 19.5581C11.6283 19.6753 11.5625 19.8343 11.5625 20C11.5625 20.1657 11.6283 20.3247 11.7455 20.4419L14.8705 23.5669Z" fill="#77CABE"/>
<path d="M24.2455 23.5669C24.3627 23.6841 24.5216 23.7499 24.6874 23.7499C24.8531 23.7499 25.012 23.6841 25.1292 23.5669L28.2542 20.4419C28.3714 20.3247 28.4372 20.1657 28.4372 20C28.4372 19.8343 28.3714 19.6753 28.2542 19.5581L25.1292 16.4331C25.0114 16.3193 24.8535 16.2563 24.6896 16.2577C24.5257 16.2591 24.369 16.3249 24.2531 16.4407C24.1372 16.5566 24.0715 16.7134 24.0701 16.8773C24.0686 17.0411 24.1316 17.199 24.2455 17.3169L26.9286 20L24.2455 22.6831C24.1283 22.8003 24.0625 22.9593 24.0625 23.125C24.0625 23.2907 24.1283 23.4497 24.2455 23.5669Z" fill="#77CABE"/>
<path d="M17.879 24.9497C17.9544 24.982 18.0355 24.9992 18.1176 25.0002C18.1997 25.0012 18.2812 24.986 18.3574 24.9556C18.4337 24.9251 18.5031 24.8798 18.5619 24.8225C18.6206 24.7651 18.6675 24.6968 18.6998 24.6213L22.4498 15.8713C22.5152 15.7189 22.5172 15.5468 22.4557 15.3928C22.3941 15.2389 22.2739 15.1157 22.1215 15.0504C21.9691 14.9851 21.797 14.983 21.643 15.0446C21.4891 15.1062 21.3659 15.2264 21.3006 15.3788L17.5506 24.1288C17.5182 24.2043 17.5011 24.2853 17.5 24.3674C17.499 24.4495 17.5142 24.531 17.5447 24.6073C17.5752 24.6835 17.6204 24.753 17.6778 24.8117C17.7351 24.8705 17.8035 24.9173 17.879 24.9497Z" fill="#77CABE"/>
</svg>
