<svg width="155" height="34" viewBox="0 0 155 34" fill="none" xmlns="http://www.w3.org/2000/svg">
<g clip-path="url(#clip0_162_1986)">
<path d="M66.2907 0C65.1633 3.09274 63.2525 4.94022 58.9285 6.21598C54.7018 7.46272 47.4186 7.86355 39.4054 6.72968C31.7557 5.64749 23.929 7.05863 19.7429 8.8027C16.133 10.3071 13.6113 12.3681 13.3507 16.0386C13.0895 19.7086 12.1388 24.5146 7.34755 26.2608C2.55633 28.0078 0 25.5911 0 25.5911C0 25.5911 7.59061 25.4734 8.29376 20.6C8.43721 19.605 8.50442 18.715 8.56597 17.8998C8.8059 14.7224 8.96006 12.6809 13.209 9.98854C18.4587 6.66008 27.4983 2.48612 42.5349 0.880389C51.0431 -0.0276153 55.6951 0.503805 58.8938 0.869215C61.9959 1.22355 63.7309 1.42178 66.2907 0Z" fill="#DC143C"/>
<path d="M14.8548 29.9653C12.4446 28.1606 11.058 27.9378 9.12646 28.1213C9.12646 28.1213 12.7244 25.5244 16.7352 27.1751C18.0501 27.7163 19.0391 28.4222 20.0366 29.1342C22.0816 30.5939 24.1625 32.0793 29.1622 32.223L29.1501 32.2322C27.913 33.1634 26.2718 34.3989 22.2371 34.1122C19.1808 33.8946 17.6889 32.5084 16.2684 31.1886C15.8067 30.7597 15.3526 30.3378 14.8548 29.9653Z" fill="#DC143C"/>
<path d="M25.88 24.0298C27.7928 24.8202 29.8648 25.6764 33.2939 26.1C38.512 26.7446 44.286 26.1755 47.6385 23.99C47.5681 24.1038 47.4963 24.2223 47.4224 24.3448C45.9504 26.7768 43.5302 30.7754 32.5968 30.2429C27.683 30.0032 25.1541 28.5392 22.895 27.2314C21.5418 26.4479 20.2854 25.7206 18.6712 25.346C14.3063 24.3318 11.6917 25.7811 10.7827 26.6966C10.7827 26.6966 12.1262 22.5539 17.2182 22.343C21.3821 22.1713 23.5087 23.05 25.88 24.0298Z" fill="#DC143C"/>
<path d="M42.4998 18.2297C51.1028 17.5707 56.1174 15.0076 57.3185 13.6145C58.5188 12.222 57.4224 15.2923 54.5783 17.9358C52.9591 19.4406 49.1351 22.591 42.332 23.2223C36.1852 23.792 30.6478 22.2386 27.234 21.2809C26.8699 21.1788 26.53 21.0835 26.2161 20.9982C22.6036 20.0181 16.3127 19.6192 14.2295 21.209C14.2295 21.209 15.6322 17.286 21.5861 16.8277C24.0252 16.6403 26.6983 17.0251 29.6769 17.4538C33.4213 17.9928 37.6482 18.6013 42.4998 18.2297Z" fill="#DC143C"/>
<path d="M42.7077 10.2187C48.2826 10.7717 56.7013 10.0136 60.4763 7.73951C63.5906 5.86317 57.5748 14.6751 44.831 15.3346C37.8926 15.694 33.1066 15.1436 29.3089 14.7068C26.1163 14.3397 23.6221 14.0528 21.1349 14.4542C17.1758 15.0935 14.8209 16.8291 14.6481 17.7107C14.6481 17.7107 14.4372 12.7216 21.6391 10.6766C29.2757 8.50732 35.1504 9.2676 39.9185 9.8847C40.8926 10.0108 41.8205 10.1309 42.7077 10.2187Z" fill="#DC143C"/>
<path d="M74.9118 17.2284H73.0898V13.9325H74.9118V12.7612C74.9118 11.9077 75.0569 11.1268 75.3469 10.4186C75.637 9.71038 76.0447 9.09296 76.5707 8.56632C77.1145 8.03972 77.7581 7.63111 78.5013 7.34058C79.2626 7.05001 80.1148 6.90472 81.0575 6.90472C81.7463 6.90472 82.408 6.98644 83.0426 7.1499C83.6769 7.29515 84.3025 7.51308 84.9187 7.80365C85.5353 8.09418 86.1515 8.44828 86.7681 8.86596L85.0821 12.1619C84.5561 11.6716 83.9579 11.2903 83.2872 11.0179C82.6345 10.7273 81.9819 10.582 81.3292 10.582C80.8944 10.582 80.5135 10.6728 80.1873 10.8544C79.8792 11.0179 79.6436 11.2539 79.4802 11.5627C79.3351 11.8714 79.2626 12.2164 79.2626 12.5978V13.9325H87.1487V27.0618H82.7976V17.2284H79.2626V27.0618H74.9118V17.2284Z" fill="#DC143C"/>
<path fill-rule="evenodd" clip-rule="evenodd" d="M90.1063 16.139C89.5626 17.2468 89.2905 18.4998 89.2905 19.8981C89.2905 20.9513 89.4536 21.9319 89.7801 22.8399C90.1063 23.7479 90.5688 24.5378 91.167 25.2097C91.7832 25.8816 92.4994 26.4082 93.3151 26.7896C94.1489 27.1528 95.0556 27.3344 96.0344 27.3344C96.9952 27.3344 97.9109 27.1165 98.7807 26.6806C99.651 26.2448 100.34 25.582 100.848 24.6922L100.929 25.4276C101.038 26.0087 101.319 26.4627 101.772 26.7896C102.244 27.1165 102.851 27.2799 103.594 27.2799C104.065 27.2799 104.682 27.2073 105.443 27.062V23.4391C105.117 23.4028 104.881 23.303 104.736 23.1395C104.591 22.9579 104.519 22.6492 104.519 22.2134V7.17731H100.168V15.104C99.7509 14.3231 99.1343 13.6966 98.3186 13.2244C97.5028 12.7341 96.5965 12.489 95.5993 12.489C94.3665 12.489 93.2787 12.8158 92.3363 13.4696C91.3936 14.1233 90.6503 15.0131 90.1063 16.139ZM100.195 18.6723V21.6686C100.05 21.9592 99.8685 22.2315 99.651 22.4858C99.4334 22.74 99.1888 22.9489 98.9167 23.1123C98.6631 23.2757 98.3911 23.4119 98.101 23.5209C97.8109 23.6117 97.5118 23.6571 97.2037 23.6571C96.7141 23.6571 96.261 23.5663 95.8439 23.3847C95.4272 23.2031 95.0646 22.9489 94.7565 22.622C94.448 22.2769 94.2034 21.8865 94.0223 21.4507C93.8588 20.9967 93.7773 20.5064 93.7773 19.9798C93.7773 19.4713 93.8498 18.9901 93.9949 18.5361C94.1579 18.0821 94.3845 17.6826 94.6746 17.3376C94.9647 16.9744 95.3002 16.6929 95.6808 16.4932C96.0799 16.2934 96.515 16.1935 96.9862 16.1935C97.4213 16.1935 97.8474 16.3025 98.2641 16.5204C98.6992 16.7383 99.0798 17.0288 99.4063 17.392C99.7509 17.7552 100.014 18.182 100.195 18.6723Z" fill="#DC143C"/>
<path fill-rule="evenodd" clip-rule="evenodd" d="M107.083 19.8981C107.083 18.4998 107.355 17.2468 107.899 16.139C108.443 15.0131 109.186 14.1233 110.129 13.4696C111.072 12.8158 112.159 12.489 113.392 12.489C114.389 12.489 115.295 12.7341 116.111 13.2244C116.927 13.6966 117.543 14.3231 117.96 15.104V7.17731H122.311V22.2134C122.311 22.6492 122.384 22.9579 122.529 23.1395C122.674 23.303 122.909 23.4028 123.236 23.4391V27.062C122.474 27.2073 121.858 27.2799 121.387 27.2799C120.643 27.2799 120.036 27.1165 119.565 26.7896C119.111 26.4627 118.83 26.0087 118.722 25.4276L118.64 24.6922C118.133 25.582 117.443 26.2448 116.574 26.6806C115.703 27.1165 114.788 27.3344 113.827 27.3344C112.848 27.3344 111.941 27.1528 111.108 26.7896C110.292 26.4082 109.576 25.8816 108.959 25.2097C108.361 24.5378 107.899 23.7479 107.573 22.8399C107.246 21.9319 107.083 20.9513 107.083 19.8981ZM117.988 21.6686V18.6723C117.806 18.182 117.543 17.7552 117.199 17.392C116.873 17.0288 116.492 16.7383 116.057 16.5204C115.64 16.3025 115.214 16.1935 114.779 16.1935C114.307 16.1935 113.872 16.2934 113.473 16.4932C113.093 16.6929 112.758 16.9744 112.467 17.3376C112.177 17.6826 111.951 18.0821 111.787 18.5361C111.642 18.9901 111.57 19.4713 111.57 19.9798C111.57 20.5064 111.651 20.9967 111.815 21.4507C111.996 21.8865 112.24 22.2769 112.549 22.622C112.857 22.9489 113.22 23.2031 113.636 23.3847C114.053 23.5663 114.507 23.6571 114.996 23.6571C115.304 23.6571 115.603 23.6117 115.893 23.5209C116.184 23.4119 116.456 23.2757 116.709 23.1123C116.981 22.9489 117.226 22.74 117.443 22.4858C117.661 22.2315 117.842 21.9592 117.988 21.6686Z" fill="#DC143C"/>
<path fill-rule="evenodd" clip-rule="evenodd" d="M129.281 26.7623C130.224 27.1436 131.302 27.3343 132.517 27.3343C133.605 27.3343 134.592 27.1708 135.481 26.844C136.387 26.5171 137.167 26.0722 137.819 25.5093C138.49 24.9282 139.007 24.2653 139.37 23.5208L135.671 22.4857C135.454 23.0123 135.055 23.43 134.475 23.7387C133.913 24.0474 133.306 24.2018 132.653 24.2018C132.127 24.2018 131.629 24.0928 131.157 23.8749C130.686 23.6388 130.296 23.3029 129.988 22.8671C129.698 22.4312 129.526 21.8955 129.471 21.2599H140.022C140.04 21.0784 140.058 20.8695 140.076 20.6334C140.113 20.3792 140.131 20.125 140.131 19.8707C140.131 18.5632 139.832 17.3556 139.234 16.2479C138.635 15.122 137.765 14.2141 136.623 13.524C135.499 12.8339 134.13 12.4889 132.517 12.4889C130.903 12.4889 129.526 12.843 128.384 13.5512C127.241 14.2413 126.362 15.1583 125.746 16.3024C125.148 17.4283 124.849 18.6813 124.849 20.0614C124.849 21.0239 125.021 21.95 125.365 22.8398C125.709 23.7115 126.208 24.4833 126.861 25.1552C127.531 25.8271 128.338 26.3627 129.281 26.7623ZM135.563 18.5905H129.362C129.435 17.9912 129.607 17.4737 129.879 17.0379C130.151 16.5839 130.505 16.2388 130.94 16.0028C131.393 15.7485 131.901 15.6214 132.462 15.6214C133.006 15.6214 133.505 15.7485 133.958 16.0028C134.411 16.2388 134.774 16.5839 135.046 17.0379C135.318 17.4737 135.49 17.9912 135.563 18.5905Z" fill="#DC143C"/>
<path d="M151.51 27.0619H155.861V17.9095C155.861 17.3102 155.807 16.7019 155.698 16.0845C155.607 15.4489 155.408 14.8587 155.1 14.3139C154.81 13.7691 154.375 13.3333 153.794 13.0065C153.232 12.6614 152.489 12.4889 151.564 12.4889C150.731 12.4889 149.96 12.5979 149.253 12.8158C148.546 13.0155 147.921 13.3152 147.377 13.7147C146.833 14.1142 146.38 14.5954 146.017 15.1583V12.7613H142.102V27.0619H146.452V18.8629C146.633 18.3726 146.887 17.9367 147.214 17.5554C147.558 17.174 147.939 16.8744 148.356 16.6565C148.773 16.4386 149.181 16.3296 149.579 16.3296C150.159 16.3296 150.622 16.5475 150.966 16.9834C151.329 17.401 151.51 18.082 151.51 19.0263V27.0619Z" fill="#DC143C"/>
</g>
<defs>
<clipPath id="clip0_162_1986">
<rect width="155" height="34" fill="white"/>
</clipPath>
</defs>
</svg>
