<svg width="155" height="30" viewBox="0 0 155 30" fill="none" xmlns="http://www.w3.org/2000/svg">
<path d="M112.838 15.2814H102.07C102.11 16.9793 102.567 18.29 103.44 19.2134C104.314 20.1368 105.516 20.5985 107.045 20.5985C108.762 20.5985 110.341 20.0326 111.781 18.9006V21.1943C110.441 22.1674 108.668 22.6539 106.464 22.6539C104.309 22.6539 102.616 21.9638 101.385 20.5837C100.154 19.1935 99.5381 17.2424 99.5381 14.7303C99.5381 12.3572 100.208 10.426 101.549 8.93655C102.899 7.43722 104.572 6.68756 106.568 6.68756C108.564 6.68756 110.108 7.33297 111.2 8.62378C112.292 9.91459 112.838 11.7068 112.838 14.0005V15.2814ZM110.336 13.2111C110.326 11.8012 109.984 10.704 109.309 9.91956C108.643 9.13514 107.715 8.74293 106.523 8.74293C105.372 8.74293 104.394 9.155 103.589 9.97913C102.785 10.8033 102.289 11.8806 102.1 13.2111H110.336Z" fill="#1F2937"/>
<path d="M86.6997 21.7454V19.124C88.0302 20.107 89.4948 20.5985 91.0934 20.5985C93.2382 20.5985 94.3106 19.8836 94.3106 18.4538C94.3106 18.0467 94.2162 17.7041 94.0276 17.4261C93.8488 17.1382 93.6006 16.885 93.2829 16.6665C92.9751 16.4481 92.6077 16.2545 92.1807 16.0857C91.7637 15.9069 91.3119 15.7232 90.8254 15.5346C90.1502 15.2665 89.5544 14.9984 89.0381 14.7303C88.5317 14.4523 88.1047 14.1445 87.7572 13.8069C87.4196 13.4594 87.1614 13.0672 86.9827 12.6303C86.8139 12.1934 86.7295 11.682 86.7295 11.0962C86.7295 10.3813 86.8933 9.75076 87.221 9.20464C87.5487 8.6486 87.9856 8.18689 88.5317 7.8195C89.0778 7.44219 89.6984 7.1592 90.3934 6.97055C91.0984 6.78189 91.8233 6.68756 92.568 6.68756C93.8886 6.68756 95.0702 6.91594 96.1127 7.37268V9.84509C94.9907 9.11032 93.6999 8.74293 92.2403 8.74293C91.7835 8.74293 91.3715 8.79754 91.0041 8.90677C90.6367 9.00606 90.319 9.15003 90.0509 9.33869C89.7927 9.52735 89.5892 9.75572 89.4402 10.0238C89.3012 10.282 89.2317 10.5699 89.2317 10.8877C89.2317 11.2848 89.3012 11.6175 89.4402 11.8856C89.5892 12.1537 89.8026 12.392 90.0807 12.6005C90.3587 12.809 90.6963 12.9976 91.0934 13.1664C91.4906 13.3352 91.9424 13.5189 92.4488 13.7175C93.124 13.9757 93.7297 14.2438 94.2659 14.5218C94.8021 14.7899 95.2588 15.0977 95.6361 15.4452C96.0134 15.7828 96.3014 16.175 96.5 16.6219C96.7085 17.0687 96.8128 17.5999 96.8128 18.2155C96.8128 18.9701 96.644 19.6255 96.3064 20.1815C95.9787 20.7376 95.5368 21.1993 94.9808 21.5667C94.4247 21.934 93.7843 22.2071 93.0595 22.3858C92.3346 22.5646 91.575 22.6539 90.7807 22.6539C89.2118 22.6539 87.8515 22.3511 86.6997 21.7454Z" fill="#1F2937"/>
<path d="M81.4865 3.17242C81.0496 3.17242 80.6772 3.02348 80.3694 2.7256C80.0616 2.42772 79.9077 2.05041 79.9077 1.59366C79.9077 1.13691 80.0616 0.759593 80.3694 0.461714C80.6772 0.153904 81.0496 0 81.4865 0C81.9333 0 82.3106 0.153904 82.6184 0.461714C82.9362 0.759593 83.095 1.13691 83.095 1.59366C83.095 2.03055 82.9362 2.4029 82.6184 2.71071C82.3106 3.01851 81.9333 3.17242 81.4865 3.17242ZM82.678 22.2963H80.2354V7.04485H82.678V22.2963Z" fill="#1F2937"/>
<path d="M77.3758 0.938477L71.3437 22.2965H68.4095L64.0158 6.68755C63.8272 6.02229 63.713 5.29745 63.6732 4.51303H63.6137C63.5541 5.2478 63.425 5.96271 63.2264 6.65777L58.8029 22.2965H55.8986L49.6431 0.938477H52.3985L56.9411 17.3219C57.1298 18.007 57.249 18.7219 57.2986 19.4666H57.3731C57.4227 18.9403 57.5766 18.2254 57.8348 17.3219L62.5562 0.938477H64.9541L69.4819 17.441C69.6408 18.007 69.7599 18.6722 69.8394 19.4368H69.899C69.9387 18.9205 70.0727 18.2354 70.3011 17.3814L74.665 0.938477H77.3758Z" fill="#1F2937"/>
<path d="M47.1111 22.2965H44.6685V13.5984C44.6685 10.3614 43.4869 8.74293 41.1237 8.74293C39.9024 8.74293 38.8896 9.20464 38.0853 10.1281C37.291 11.0416 36.8938 12.1983 36.8938 13.5984V22.2965H34.4512V7.04502H36.8938V9.57699H36.9534C38.1052 7.65071 39.7733 6.68756 41.9578 6.68756C43.6259 6.68756 44.9018 7.22871 45.7855 8.31101C46.6692 9.38337 47.1111 10.9373 47.1111 12.9728V22.2965Z" fill="#1F2937"/>
<path d="M30.7423 15.2814H19.9739C20.0136 16.9793 20.4703 18.29 21.3441 19.2134C22.2179 20.1368 23.4194 20.5985 24.9485 20.5985C26.6663 20.5985 28.245 20.0326 29.6848 18.9006V21.1943C28.3443 22.1674 26.5719 22.6539 24.3676 22.6539C22.213 22.6539 20.52 21.9638 19.2888 20.5837C18.0575 19.1935 17.4419 17.2424 17.4419 14.7303C17.4419 12.3572 18.1121 10.426 19.4526 8.93655C20.803 7.43722 22.4761 6.68756 24.4719 6.68756C26.4677 6.68756 28.0117 7.33297 29.1039 8.62378C30.1962 9.91459 30.7423 11.7068 30.7423 14.0005V15.2814ZM28.2401 13.2111C28.2301 11.8012 27.8876 10.704 27.2124 9.91956C26.5471 9.13514 25.6187 8.74293 24.4272 8.74293C23.2754 8.74293 22.2974 9.155 21.4931 9.97913C20.6888 10.8033 20.1923 11.8806 20.0037 13.2111H28.2401Z" fill="#1F2937"/>
<path d="M5.34839 14.2239V22.2965H2.84619V0.938477H8.71444C10.9982 0.938477 12.7656 1.49452 14.0167 2.6066C15.2777 3.71869 15.9083 5.28752 15.9083 7.3131C15.9083 9.33868 15.2082 10.9969 13.8082 12.2877C12.4181 13.5785 10.5365 14.2239 8.16336 14.2239H5.34839ZM5.34839 3.20236V11.96H7.96974C9.69745 11.96 11.0131 11.5678 11.9167 10.7834C12.8302 9.98905 13.2869 8.87201 13.2869 7.43225C13.2869 4.61233 11.6188 3.20236 8.28252 3.20236H5.34839Z" fill="#1F2937"/>
<path opacity="0.4" d="M0 27.3347C25.7568 25.4029 51.514 25.4029 77.2709 27.3347C102.967 29.2619 128.663 29.2619 154.359 27.3347L154.451 28.5512C128.694 30.483 102.937 30.483 77.1797 28.5512C51.4837 26.624 25.7878 26.624 0.0917473 28.5512L0 27.3347Z" fill="#6B7280"/>
<path opacity="0.7" d="M139.707 15.8691C141.055 15.8691 142.147 14.7766 142.147 13.4289C142.147 12.0812 141.055 10.9886 139.707 10.9886C138.359 10.9886 137.267 12.0812 137.267 13.4289C137.267 14.7766 138.359 15.8691 139.707 15.8691Z" fill="#9CA3AF"/>
<path opacity="0.5" d="M146.113 10.3785C146.955 10.3785 147.638 9.55915 147.638 8.54837C147.638 7.5376 146.955 6.7182 146.113 6.7182C145.27 6.7182 144.587 7.5376 144.587 8.54837C144.587 9.55915 145.27 10.3785 146.113 10.3785Z" fill="#6B7280"/>
<path opacity="0.6" d="M150.993 13.4291C151.835 13.4291 152.518 12.7463 152.518 11.904C152.518 11.0617 151.835 10.3788 150.993 10.3788C150.151 10.3788 149.468 11.0617 149.468 11.904C149.468 12.7463 150.151 13.4291 150.993 13.4291Z" fill="#9CA3AF"/>
</svg>
