<svg width="77" height="34" viewBox="0 0 77 34" fill="none" xmlns="http://www.w3.org/2000/svg">
<path d="M66.5726 7.55035C69.5989 7.55035 72.0076 8.53855 73.7987 10.5149C75.6207 12.4604 76.5317 15.1471 76.5317 18.5749V33.6757H68.657V19.6403C68.657 17.9109 68.2093 16.5676 67.3137 15.6103C66.4182 14.653 65.2138 14.1743 63.7006 14.1743C62.1875 14.1743 60.9831 14.653 60.0876 15.6103C59.192 16.5676 58.7442 17.9109 58.7442 19.6403V33.6757H50.8232V7.82828H58.7442V11.2561C59.5471 10.1135 60.628 9.21793 61.9867 8.56943C63.3455 7.89004 64.8741 7.55035 66.5726 7.55035Z" fill="#2B71FE"/>
<path d="M39.7778 33.6758L36.9521 29.7847C36.0566 31.0509 34.8522 32.0699 33.3391 32.842C31.8568 33.614 30.1892 34 28.3363 34C26.2364 34 24.3836 33.5522 22.7778 32.6567C21.2028 31.7611 19.983 30.5568 19.1184 29.0436C18.2846 27.4995 17.8677 25.7856 17.8677 23.9019C17.8677 21.3697 18.5779 19.2234 19.9985 17.4632C21.419 15.703 23.2101 14.6376 25.3718 14.267C24.5997 13.2171 24.0284 12.198 23.6579 11.2098C23.2873 10.1907 23.102 9.12534 23.102 8.01363C23.102 6.62398 23.4726 5.31153 24.2137 4.07629C24.9549 2.84105 26.0357 1.85286 27.4562 1.11172C28.9076 0.370573 30.637 0 32.6442 0C35.4235 0 37.6161 0.633061 39.2219 1.89918C40.8586 3.1653 41.8622 4.75568 42.2328 6.6703C42.4181 7.50409 42.5107 8.35332 42.5107 9.21799C42.5107 9.89737 42.4798 10.4069 42.4181 10.7466H34.914C35.0375 10.1907 35.0684 9.55768 35.0066 8.84741C34.9758 8.16803 34.7596 7.62761 34.3581 7.22616C33.9567 6.79382 33.4163 6.57766 32.7369 6.57766C32.1193 6.57766 31.6097 6.77838 31.2083 7.17984C30.8377 7.58129 30.6524 8.07539 30.6524 8.66213C30.6524 9.09446 30.7451 9.54223 30.9303 10.0054C31.1465 10.4378 31.5016 10.9936 31.9957 11.673L48.162 33.6758H39.7778ZM28.3827 27.4687C29.4326 27.4687 30.3127 27.1135 31.023 26.4033C31.7333 25.693 32.0884 24.7975 32.0884 23.7166C32.0884 22.6667 31.7333 21.802 31.023 21.1226C30.3127 20.4124 29.4326 20.0572 28.3827 20.0572C27.3327 20.0572 26.4526 20.4124 25.7423 21.1226C25.063 21.802 24.7233 22.6667 24.7233 23.7166C24.7233 24.7975 25.063 25.693 25.7423 26.4033C26.4526 27.1135 27.3327 27.4687 28.3827 27.4687Z" fill="#2B71FE"/>
<path d="M7.92098 12.4604C8.84741 10.9473 10.0055 9.75835 11.3951 8.89368C12.8156 7.99813 14.3597 7.55035 16.0272 7.55035V15.9345H13.8501C11.8738 15.9345 10.3915 16.3669 9.40327 17.2316C8.41508 18.0653 7.92098 19.5476 7.92098 21.6784V33.6757H0V7.82828H7.92098V12.4604Z" fill="#2B71FE"/>
</svg>
