<svg width="122" height="34" viewBox="0 0 122 34" fill="none" xmlns="http://www.w3.org/2000/svg">
<path d="M27.237 10.6836L27.6329 12.2819C27.684 12.5087 27.5925 12.7382 27.404 12.8705C26.5314 13.4456 25.9471 14.4202 25.904 15.5569C25.842 17.2363 27.0593 18.7104 28.7074 18.9939C28.7855 19.0074 28.8555 19.0128 28.9282 19.0209C29.1544 19.0479 29.3402 19.2072 29.3914 19.434L29.9057 21.4994C29.9623 21.7397 29.8465 21.9962 29.623 22.1123L22.7182 25.6843C21.0943 26.5294 19.2335 26.7048 17.5235 26.2324C16.1285 25.0282 15.2021 23.3543 14.9113 21.5291L14.1519 16.7098L26.4614 10.3272C26.7765 10.1679 27.1535 10.338 27.2397 10.6809" fill="#FC0000"/>
<path d="M11.4967 2.69989C11.739 2.69989 11.9518 2.88349 11.9949 3.13188L14.1493 16.7097L14.9087 21.5291C15.1995 23.3542 16.1259 25.0255 17.5235 26.2323C16.818 26.0406 16.1448 25.7383 15.5146 25.3333L9.13495 21.1889L6.52546 19.496C3.70862 17.6682 1.79661 14.7253 1.27148 11.4017L0.00578603 3.41537C-0.0399944 3.11837 0.191597 2.83759 0.498596 2.83489L2.27057 2.81329C2.49409 2.81059 2.70952 2.94558 2.77685 3.16157C3.17002 4.42783 4.2903 5.39171 5.68526 5.5132C7.31181 5.6563 8.7687 4.60603 9.19958 3.09408C9.26152 2.87538 9.47427 2.73499 9.70048 2.72959L11.4994 2.70259L11.4967 2.69989Z" fill="black"/>
<path d="M23.1547 26.9208C18.6305 26.9208 14.758 29.7476 13.1826 33.73H17.9599C19.1529 32.1559 21.0353 31.1353 23.1547 31.1353C25.274 31.1353 27.1564 32.1586 28.3494 33.73H33.1267C31.5514 29.7476 27.6789 26.9208 23.1547 26.9208Z" fill="#FC0000"/>
<path d="M51.5841 12.4628C51.5841 15.2815 48.9881 17.1984 44.0303 17.1984C40.516 17.1984 37.5672 16.24 35.4209 14.5174L37.5106 12.0497C39.1318 13.4186 41.3751 14.1826 44.1084 14.1826C46.4513 14.1826 47.6227 13.7533 47.6227 12.8516C47.6227 11.9498 46.5294 11.6771 43.7179 11.4422C39.6569 11.0885 35.9676 10.1895 35.9676 7.13586C35.9676 4.08226 39.1291 2.5946 43.4648 2.5946C46.3921 2.5946 49.0877 3.29928 50.962 4.63034L48.9504 7.11696C47.4288 6.03969 45.5922 5.61041 43.4648 5.59151C41.8625 5.59151 39.9316 5.8453 39.9316 6.82537C39.9316 7.74604 41.5124 7.86214 43.9522 8.05923C48.4226 8.43182 51.5841 9.31199 51.5841 12.4628Z" fill="black"/>
<path d="M98.6491 6.23951H92.967V16.7503H88.9841V6.23951H83.3423V3.04822H98.6491V6.23951Z" fill="black"/>
<path d="M60.4251 19.7471L54.3767 33.4492H50.4127L47.2323 23.9185L44.0303 33.4492H40.1067L34.5376 19.7471H38.6175L42.1749 29.1644L45.4361 19.7471H49.1039L52.3651 29.1644L56.4234 19.7471H60.4251Z" fill="black"/>
<path d="M76.3407 19.7471L80.8514 29.6126L85.3433 19.7471H89.5982L82.9008 33.4492H78.724L72.0454 19.7471H76.3407Z" fill="black"/>
<path d="M122 29.1644C122 31.9832 119.404 33.9001 114.446 33.9001C110.932 33.9001 107.983 32.9416 105.836 31.2191L107.926 28.7514C109.547 30.1202 111.791 30.8843 114.524 30.8843C116.867 30.8843 118.038 30.455 118.038 29.5532C118.038 28.6515 116.945 28.3788 114.133 28.1439C110.072 27.7902 106.383 26.8911 106.383 23.8375C106.383 20.7839 109.545 19.2963 113.88 19.2963C116.808 19.2963 119.503 20.0009 121.378 21.332L119.366 23.8186C117.844 22.7414 116.008 22.3121 113.88 22.2932C112.278 22.2932 110.347 22.547 110.347 23.527C110.347 24.4477 111.928 24.5638 114.368 24.7609C118.838 25.1335 122 26.0136 122 29.1644Z" fill="black"/>
<path d="M101.598 0.718178H100.09V0H103.949V0.718178H102.441V4.56285H101.598V0.718178Z" fill="black"/>
<path d="M108.766 4.56285L108.758 1.53895L107.264 4.04177H106.887L105.392 1.57675V4.56285H104.587V0H105.282L107.089 3.02391L108.863 0H109.558L109.566 4.56285H108.766Z" fill="black"/>
<path d="M62.7573 27.9873H62.7708L65.1406 23.1356L62.7573 27.9873Z" fill="black"/>
<path d="M68.3882 19.7471H64.0363L56.9673 33.4492H61.1468L63.8128 27.9873H63.7993L66.1826 23.1355L71.2185 33.4492H75.4572L68.3882 19.7471Z" fill="black"/>
<path d="M79.5049 3.04822H75.1503L68.084 16.7503H72.2608L74.9268 11.2883H74.916L77.2993 6.4339L82.3352 16.7503H86.5712L79.5049 3.04822Z" fill="black"/>
<path d="M64.901 11.2694V8.35352H56.4263L57.6946 11.2694H64.901Z" fill="black"/>
<path d="M56.2913 13.6967V12.0605V11.2694V8.35354V8.04575V6.10182H66.7374V3.04822H52.3677V16.7503H66.9528V13.6967H56.2913Z" fill="black"/>
<path d="M103.394 27.9684V25.0525H94.9165L96.1849 27.9684H103.394Z" fill="black"/>
<path d="M94.7845 30.3956V28.7594V27.9684V25.0525V24.7474V22.8007H105.228V19.7471H90.8608V33.4492H105.443V30.3956H94.7845Z" fill="black"/>
</svg>
